<?xml version="1.0" encoding="UTF-8"?> <svg xmlns="http://www.w3.org/2000/svg" id="Слой_1" data-name="Слой 1" viewBox="0 0 400 400"> <defs> <style>.cls-1{fill:#ce159c;}.cls-2{fill:none;stroke:#ce159c;stroke-miterlimit:10;stroke-width:2px;}.cls-3{fill:#1d3e67;}</style> </defs> <circle class="cls-1" cx="278.63" cy="213.09" r="16.01"></circle> <circle class="cls-1" cx="365.99" cy="237.06" r="16.01"></circle> <circle class="cls-1" cx="336.45" cy="151.7" r="8.47"></circle> <circle class="cls-1" cx="368.82" cy="182.44" r="8.47"></circle> <circle class="cls-1" cx="300.77" cy="162.67" r="11.3"></circle> <circle class="cls-1" cx="309.14" cy="252.64" r="11.3"></circle> <circle class="cls-1" cx="317.03" cy="201.28" r="7.53"></circle> <circle class="cls-1" cx="61.7" cy="137.51" r="16.01"></circle> <circle class="cls-1" cx="57.03" cy="259.94" r="16.01"></circle> <circle class="cls-1" cx="162.73" cy="217" r="8.47"></circle> <circle class="cls-1" cx="111.67" cy="257.69" r="8.47"></circle> <circle class="cls-1" cx="123.15" cy="167.73" r="11.3"></circle> <circle class="cls-1" cx="28" cy="202.12" r="11.3"></circle> <circle class="cls-1" cx="88.11" cy="207.87" r="7.53"></circle> <polyline class="cls-2" points="76.91 142.51 122.78 167.2 88.67 208.13 28.41 204.72 56.83 263.84 113.68 258.16 162.57 217.23 91.51 212.11 109.7 253.04"></polyline> <rect class="cls-3" x="184.17" y="188.18" width="25.09" height="43.9"></rect> <polygon class="cls-3" points="209.16 174.03 209.16 246.79 248.98 210.41 209.16 174.03"></polygon> </svg> 