<?xml version="1.0" encoding="UTF-8"?> <svg xmlns="http://www.w3.org/2000/svg" id="Слой_1" data-name="Слой 1" viewBox="0 0 400 400"> <defs> <style>.cls-1{fill:#ce159c;}.cls-2,.cls-3,.cls-4,.cls-5{fill:#fff;}.cls-2{opacity:0.62;}.cls-4{opacity:0.22;}.cls-5{opacity:0.67;}.cls-6{fill:#1d3e67;}</style> </defs> <ellipse class="cls-1" cx="86.85" cy="199.67" rx="89.13" ry="40.88" transform="translate(-114.79 281.84) rotate(-88.66)"></ellipse> <ellipse class="cls-2" cx="86.8" cy="186.74" rx="59.83" ry="27.44" transform="translate(-101.92 269.15) rotate(-88.66)"></ellipse> <ellipse class="cls-3" cx="94.4" cy="156.66" rx="6.69" ry="6.54" transform="translate(-64.42 247.37) rotate(-88.66)"></ellipse> <rect class="cls-4" x="84.09" y="242.98" width="1.64" height="9.81" rx="0.5" transform="translate(5.81 -1.91) rotate(1.34)"></rect> <rect class="cls-4" x="87.4" y="241.42" width="1.64" height="9.81" rx="0.5" transform="translate(-39.1 17.74) rotate(-9.41)"></rect> <rect class="cls-4" x="92.34" y="239.9" width="1.64" height="9.81" rx="0.5" transform="translate(-106.01 74.68) rotate(-28.66)"></rect> <rect class="cls-4" x="114.06" y="185.61" width="1.64" height="9.81" rx="0.5" transform="translate(-78.28 300.91) rotate(-88.66)"></rect> <rect class="cls-4" x="113.94" y="190.52" width="1.64" height="9.81" rx="0.5" transform="translate(-104.92 251.13) rotate(-73.81)"></rect> <rect class="cls-4" x="113.79" y="197.06" width="1.64" height="9.81" rx="0.5" transform="translate(-111.31 255.69) rotate(-73.81)"></rect> <rect class="cls-4" x="113.64" y="203.6" width="1.64" height="9.81" rx="0.5" transform="translate(-117.7 260.26) rotate(-73.81)"></rect> <rect class="cls-4" x="111.89" y="208.46" width="1.64" height="9.81" rx="0.5" transform="translate(-123.63 262.09) rotate(-73.81)"></rect> <rect class="cls-4" x="108.35" y="219.83" width="1.64" height="9.81" rx="0.5" transform="translate(-139.56 201.1) rotate(-58.66)"></rect> <rect class="cls-4" x="104.93" y="226.29" width="1.64" height="9.81" rx="0.5" transform="translate(-146.72 201.28) rotate(-58.66)"></rect> <rect class="cls-4" x="101.54" y="231.12" width="1.64" height="9.81" rx="0.5" transform="translate(-152.47 200.7) rotate(-58.66)"></rect> <rect class="cls-4" x="98.16" y="235.95" width="1.64" height="9.81" rx="0.5" transform="translate(-158.22 200.13) rotate(-58.66)"></rect> <rect class="cls-4" x="110.1" y="214.96" width="1.64" height="9.81" rx="0.5" transform="translate(-135.12 230.46) rotate(-65.7)"></rect> <rect class="cls-4" x="84.09" y="242.98" width="1.64" height="9.81" rx="0.5" transform="translate(164.01 497.69) rotate(-178.66)"></rect> <rect class="cls-4" x="80.86" y="241.27" width="1.64" height="9.81" rx="0.5" transform="translate(110 504) rotate(-167.91)"></rect> <rect class="cls-4" x="75.99" y="239.52" width="1.64" height="9.81" rx="0.5" transform="translate(15.3 493.14) rotate(-148.66)"></rect> <rect class="cls-4" x="56.84" y="184.28" width="1.64" height="9.81" rx="0.5" transform="translate(-132.82 242.41) rotate(-88.66)"></rect> <rect class="cls-4" x="56.72" y="189.18" width="1.64" height="9.81" rx="0.5" transform="translate(-117.72 295.41) rotate(-103.52)"></rect> <rect class="cls-4" x="56.57" y="195.72" width="1.64" height="9.81" rx="0.5" transform="translate(-124.26 303.33) rotate(-103.52)"></rect> <rect class="cls-4" x="56.42" y="202.26" width="1.64" height="9.81" rx="0.5" transform="translate(-130.81 311.25) rotate(-103.52)"></rect> <rect class="cls-4" x="57.94" y="207.2" width="1.64" height="9.81" rx="0.5" transform="translate(-133.74 318.82) rotate(-103.52)"></rect> <rect class="cls-4" x="60.94" y="218.72" width="1.64" height="9.81" rx="0.5" transform="translate(-104.84 385.08) rotate(-118.66)"></rect> <rect class="cls-4" x="64.06" y="225.34" width="1.64" height="9.81" rx="0.5" transform="translate(-106.04 397.61) rotate(-118.66)"></rect> <rect class="cls-4" x="67.21" y="230.32" width="1.64" height="9.81" rx="0.5" transform="translate(-105.74 407.75) rotate(-118.66)"></rect> <rect class="cls-4" x="70.37" y="235.3" width="1.64" height="9.81" rx="0.5" transform="translate(-105.44 417.88) rotate(-118.66)"></rect> <rect class="cls-4" x="59.42" y="213.78" width="1.64" height="9.81" rx="0.5" transform="translate(-120.85 355.29) rotate(-111.63)"></rect> <rect class="cls-4" x="88.59" y="120.41" width="1.64" height="9.81" rx="0.5" transform="translate(2.95 -2.05) rotate(1.34)"></rect> <rect class="cls-4" x="91.82" y="122.12" width="1.64" height="9.81" rx="0.5" transform="translate(28.65 -16.58) rotate(12.09)"></rect> <rect class="cls-4" x="96.69" y="123.87" width="1.64" height="9.81" rx="0.5" transform="translate(81.2 -31.92) rotate(31.34)"></rect> <rect class="cls-4" x="115.84" y="179.11" width="1.64" height="9.81" rx="0.5" transform="translate(303.35 71.69) rotate(91.34)"></rect> <rect class="cls-4" x="115.96" y="174.21" width="1.64" height="9.81" rx="0.5" transform="translate(263.63 23.7) rotate(76.48)"></rect> <rect class="cls-4" x="116.11" y="167.67" width="1.64" height="9.81" rx="0.5" transform="translate(257.39 18.54) rotate(76.48)"></rect> <rect class="cls-4" x="116.26" y="161.13" width="1.64" height="9.81" rx="0.5" transform="translate(251.15 13.38) rotate(76.48)"></rect> <rect class="cls-4" x="114.74" y="156.19" width="1.64" height="9.81" rx="0.5" transform="translate(245.18 11.08) rotate(76.48)"></rect> <rect class="cls-4" x="111.74" y="144.67" width="1.64" height="9.81" rx="0.5" transform="translate(189.82 -20.93) rotate(61.34)"></rect> <rect class="cls-4" x="108.62" y="138.05" width="1.64" height="9.81" rx="0.5" transform="translate(182.39 -21.64) rotate(61.34)"></rect> <rect class="cls-4" x="105.47" y="133.07" width="1.64" height="9.81" rx="0.5" transform="translate(176.38 -21.46) rotate(61.34)"></rect> <rect class="cls-4" x="102.31" y="128.09" width="1.64" height="9.81" rx="0.5" transform="translate(170.36 -21.29) rotate(61.34)"></rect> <rect class="cls-4" x="113.26" y="149.61" width="1.64" height="9.81" rx="0.5" transform="translate(215.67 -8.48) rotate(68.37)"></rect> <rect class="cls-4" x="88.59" y="120.41" width="1.64" height="9.81" rx="0.5" transform="translate(175.87 252.69) rotate(-178.66)"></rect> <rect class="cls-4" x="85.28" y="121.97" width="1.64" height="9.81" rx="0.5" transform="matrix(-0.99, 0.16, -0.16, -0.99, 191.79, 237.96)"></rect> <rect class="cls-4" x="80.34" y="123.49" width="1.64" height="9.81" rx="0.5" transform="translate(213.95 202.13) rotate(151.34)"></rect> <rect class="cls-4" x="58.63" y="177.78" width="1.64" height="9.81" rx="0.5" transform="translate(243.46 127.52) rotate(91.34)"></rect> <rect class="cls-4" x="58.74" y="172.87" width="1.64" height="9.81" rx="0.5" transform="translate(246.89 170.17) rotate(106.19)"></rect> <rect class="cls-4" x="58.89" y="166.33" width="1.64" height="9.81" rx="0.5" transform="translate(240.81 161.66) rotate(106.19)"></rect> <rect class="cls-4" x="59.05" y="159.79" width="1.64" height="9.81" rx="0.5" transform="translate(234.72 153.15) rotate(106.19)"></rect> <rect class="cls-4" x="60.8" y="154.93" width="1.64" height="9.81" rx="0.5" transform="translate(232.29 145.24) rotate(106.19)"></rect> <rect class="cls-4" x="64.33" y="143.56" width="1.64" height="9.81" rx="0.5" transform="translate(225.84 170.04) rotate(121.34)"></rect> <rect class="cls-4" x="67.75" y="137.1" width="1.64" height="9.81" rx="0.5" transform="translate(225.52 157.29) rotate(121.34)"></rect> <rect class="cls-4" x="71.14" y="132.27" width="1.64" height="9.81" rx="0.5" transform="translate(226.54 147.06) rotate(121.34)"></rect> <rect class="cls-4" x="74.52" y="127.44" width="1.64" height="9.81" rx="0.5" transform="translate(227.56 136.83) rotate(121.34)"></rect> <rect class="cls-4" x="62.58" y="148.43" width="1.64" height="9.81" rx="0.5" transform="translate(229.24 158.66) rotate(114.3)"></rect> <ellipse class="cls-1" cx="319.26" cy="300.75" rx="29.46" ry="64.24" transform="translate(-45.1 56.58) rotate(-9.46)"></ellipse> <ellipse class="cls-5" cx="317.48" cy="291.61" rx="19.78" ry="43.12" transform="translate(-43.62 56.16) rotate(-9.46)"></ellipse> <ellipse class="cls-3" cx="318.8" cy="269.28" rx="4.71" ry="4.82" transform="translate(-39.93 56.07) rotate(-9.46)"></ellipse> <rect class="cls-4" x="323.81" y="331.62" width="1.18" height="7.07" rx="0.45" transform="matrix(0.99, -0.16, 0.16, 0.99, -50.68, 57.89)"></rect> <rect class="cls-4" x="325.94" y="330.07" width="1.18" height="7.07" rx="0.45" transform="translate(-95.15 133.36) rotate(-20.21)"></rect> <rect class="cls-4" x="329.24" y="328.32" width="1.18" height="7.07" rx="0.45" transform="translate(-135.73 285.28) rotate(-39.46)"></rect> <rect class="cls-4" x="337.28" y="286.96" width="1.18" height="7.07" rx="0.45" transform="translate(106.87 671.52) rotate(-99.46)"></rect> <rect class="cls-4" x="337.86" y="290.45" width="1.18" height="7.07" rx="0.45" transform="translate(13.95 603.29) rotate(-84.61)"></rect> <rect class="cls-4" x="338.63" y="295.1" width="1.18" height="7.07" rx="0.45" transform="translate(10.02 608.28) rotate(-84.61)"></rect> <rect class="cls-4" x="339.41" y="299.75" width="1.18" height="7.07" rx="0.45" transform="translate(6.1 613.26) rotate(-84.61)"></rect> <rect class="cls-4" x="338.83" y="303.43" width="1.18" height="7.07" rx="0.45" transform="translate(1.9 616.02) rotate(-84.61)"></rect> <rect class="cls-4" x="337.86" y="311.95" width="1.18" height="7.07" rx="0.45" transform="translate(-75.72 521.74) rotate(-69.46)"></rect> <rect class="cls-4" x="336.31" y="316.99" width="1.18" height="7.07" rx="0.45" transform="translate(-81.45 523.56) rotate(-69.46)"></rect> <rect class="cls-4" x="334.56" y="320.86" width="1.18" height="7.07" rx="0.45" transform="matrix(0.35, -0.94, 0.94, 0.35, -86.21, 524.45)"></rect> <rect class="cls-4" x="332.82" y="324.74" width="1.18" height="7.07" rx="0.45" transform="translate(-90.97 525.33) rotate(-69.46)"></rect> <rect class="cls-4" x="338.44" y="308.27" width="1.18" height="7.07" rx="0.45" transform="translate(-43.33 568.65) rotate(-76.5)"></rect> <rect class="cls-4" x="323.81" y="331.62" width="1.18" height="7.07" rx="0.45" transform="translate(699.49 612.41) rotate(170.54)"></rect> <rect class="cls-4" x="321.29" y="330.84" width="1.18" height="7.07" rx="0.45" transform="translate(636.17 675.9) rotate(-178.71)"></rect> <rect class="cls-4" x="317.61" y="330.26" width="1.18" height="7.07" rx="0.45" transform="translate(499.07 758.01) rotate(-159.46)"></rect> <rect class="cls-4" x="296.59" y="293.74" width="1.18" height="7.07" rx="0.45" transform="translate(52.8 639.28) rotate(-99.46)"></rect> <rect class="cls-4" x="297.17" y="297.23" width="1.18" height="7.07" rx="0.45" transform="translate(146.31 695.96) rotate(-114.32)"></rect> <rect class="cls-4" x="297.95" y="301.88" width="1.18" height="7.07" rx="0.45" transform="translate(143.17 703.23) rotate(-114.32)"></rect> <rect class="cls-4" x="298.72" y="306.53" width="1.18" height="7.07" rx="0.45" transform="translate(140.02 710.5) rotate(-114.32)"></rect> <rect class="cls-4" x="300.46" y="309.82" width="1.18" height="7.07" rx="0.45" transform="translate(139.48 716.74) rotate(-114.32)"></rect> <rect class="cls-4" x="304.15" y="317.57" width="1.18" height="7.07" rx="0.45" transform="translate(250.51 760.46) rotate(-129.46)"></rect> <rect class="cls-4" x="307.25" y="321.83" width="1.18" height="7.07" rx="0.45" transform="translate(252.29 769.83) rotate(-129.46)"></rect> <rect class="cls-4" x="310.15" y="324.93" width="1.18" height="7.07" rx="0.45" transform="translate(254.65 777.14) rotate(-129.46)"></rect> <rect class="cls-4" x="313.06" y="328.03" width="1.18" height="7.07" rx="0.45" transform="translate(257.01 784.45) rotate(-129.46)"></rect> <rect class="cls-4" x="302.4" y="314.28" width="1.18" height="7.07" rx="0.45" transform="matrix(-0.54, -0.84, 0.84, -0.54, 197.22, 743.98)"></rect> <rect class="cls-4" x="310.44" y="244.24" width="1.18" height="7.07" rx="0.45" transform="translate(-36.5 54.5) rotate(-9.46)"></rect> <rect class="cls-4" x="312.96" y="245.01" width="1.18" height="7.07" rx="0.45" transform="matrix(1, 0.02, -0.02, 1, 5.66, -6.98)"></rect> <rect class="cls-4" x="316.64" y="245.59" width="1.18" height="7.07" rx="0.45" transform="translate(107.56 -95.46) rotate(20.54)"></rect> <rect class="cls-4" x="337.66" y="282.11" width="1.18" height="7.07" rx="0.45" transform="translate(564.41 -94.96) rotate(80.54)"></rect> <rect class="cls-4" x="337.08" y="278.63" width="1.18" height="7.07" rx="0.45" transform="translate(455.74 -141.75) rotate(65.68)"></rect> <rect class="cls-4" x="336.31" y="273.98" width="1.18" height="7.07" rx="0.45" transform="translate(451.04 -143.78) rotate(65.68)"></rect> <rect class="cls-4" x="335.53" y="269.33" width="1.18" height="7.07" rx="0.45" transform="translate(446.35 -145.8) rotate(65.68)"></rect> <rect class="cls-4" x="333.79" y="266.03" width="1.18" height="7.07" rx="0.45" transform="translate(442.32 -146.15) rotate(65.68)"></rect> <rect class="cls-4" x="330.11" y="258.28" width="1.18" height="7.07" rx="0.45" transform="translate(322.65 -159.9) rotate(50.54)"></rect> <rect class="cls-4" x="327.01" y="254.02" width="1.18" height="7.07" rx="0.45" transform="translate(318.23 -159.06) rotate(50.54)"></rect> <rect class="cls-4" x="324.1" y="250.92" width="1.18" height="7.07" rx="0.45" transform="translate(314.78 -157.94) rotate(50.54)"></rect> <rect class="cls-4" x="321.2" y="247.82" width="1.18" height="7.07" rx="0.45" transform="translate(311.33 -156.83) rotate(50.54)"></rect> <rect class="cls-4" x="331.85" y="261.58" width="1.18" height="7.07" rx="0.45" transform="translate(377.93 -157.65) rotate(57.57)"></rect> <rect class="cls-4" x="310.44" y="244.24" width="1.18" height="7.07" rx="0.45" transform="translate(658.57 441.04) rotate(170.54)"></rect> <rect class="cls-4" x="308.31" y="245.79" width="1.18" height="7.07" rx="0.45" transform="translate(684.92 376.57) rotate(159.79)"></rect> <rect class="cls-4" x="305.02" y="247.53" width="1.18" height="7.07" rx="0.45" transform="translate(701.12 250.66) rotate(140.54)"></rect> <rect class="cls-4" x="296.98" y="288.9" width="1.18" height="7.07" rx="0.45" transform="translate(537.1 -49.16) rotate(80.54)"></rect> <rect class="cls-4" x="296.4" y="285.41" width="1.18" height="7.07" rx="0.45" transform="translate(612.57 20.44) rotate(95.39)"></rect> <rect class="cls-4" x="295.62" y="280.76" width="1.18" height="7.07" rx="0.45" transform="translate(607.09 16.12) rotate(95.39)"></rect> <rect class="cls-4" x="294.85" y="276.11" width="1.18" height="7.07" rx="0.45" transform="translate(601.62 11.81) rotate(95.39)"></rect> <rect class="cls-4" x="295.43" y="272.43" width="1.18" height="7.07" rx="0.45" transform="translate(598.59 7.2) rotate(95.39)"></rect> <rect class="cls-4" x="296.4" y="263.9" width="1.18" height="7.07" rx="0.45" transform="translate(651.61 83.15) rotate(110.54)"></rect> <rect class="cls-4" x="297.95" y="258.86" width="1.18" height="7.07" rx="0.45" transform="translate(648.99 74.9) rotate(110.54)"></rect> <rect class="cls-4" x="299.69" y="254.99" width="1.18" height="7.07" rx="0.45" transform="translate(647.72 68.03) rotate(110.54)"></rect> <rect class="cls-4" x="301.43" y="251.11" width="1.18" height="7.07" rx="0.45" transform="translate(646.44 61.16) rotate(110.54)"></rect> <rect class="cls-4" x="295.81" y="267.58" width="1.18" height="7.07" rx="0.45" transform="translate(629.24 46.22) rotate(103.5)"></rect> <ellipse class="cls-1" cx="189.88" cy="93.78" rx="33.84" ry="73.78" transform="translate(-17.87 52.68) rotate(-15.09)"></ellipse> <ellipse class="cls-5" cx="186.81" cy="83.53" rx="22.71" ry="49.52" transform="translate(-15.31 51.53) rotate(-15.09)"></ellipse> <ellipse class="cls-3" cx="185.8" cy="57.87" rx="5.41" ry="5.53" transform="matrix(0.97, -0.26, 0.26, 0.97, -8.66, 50.38)"></ellipse> <rect class="cls-4" x="198.95" y="128.46" width="1.35" height="8.12" rx="0.5" transform="translate(-27.62 56.56) rotate(-15.09)"></rect> <rect class="cls-4" x="201.21" y="126.45" width="1.35" height="8.12" rx="0.5" transform="translate(-36.7 101.06) rotate(-25.84)"></rect> <rect class="cls-4" x="204.78" y="124.09" width="1.35" height="8.12" rx="0.5" transform="translate(-30.35 183.2) rotate(-45.09)"></rect> <rect class="cls-4" x="209.31" y="75.9" width="1.35" height="8.12" rx="0.5" transform="translate(187.46 303.53) rotate(-105.09)"></rect> <rect class="cls-4" x="210.37" y="79.82" width="1.35" height="8.12" rx="0.5" transform="translate(128.03 295.27) rotate(-90.24)"></rect> <rect class="cls-4" x="211.78" y="85.05" width="1.35" height="8.12" rx="0.5" transform="translate(124.22 301.93) rotate(-90.24)"></rect> <rect class="cls-4" x="213.19" y="90.28" width="1.35" height="8.12" rx="0.5" transform="translate(120.41 308.59) rotate(-90.24)"></rect> <rect class="cls-4" x="212.94" y="94.55" width="1.35" height="8.12" rx="0.5" transform="translate(115.89 312.63) rotate(-90.24)"></rect> <rect class="cls-4" x="212.79" y="104.4" width="1.35" height="8.12" rx="0.5" transform="matrix(0.26, -0.97, 0.97, 0.26, 53.74, 286.85)"></rect> <rect class="cls-4" x="211.59" y="110.33" width="1.35" height="8.12" rx="0.5" transform="translate(47.12 290.09) rotate(-75.09)"></rect> <rect class="cls-4" x="210.03" y="114.96" width="1.35" height="8.12" rx="0.5" transform="translate(41.49 292.02) rotate(-75.09)"></rect> <rect class="cls-4" x="208.47" y="119.58" width="1.35" height="8.12" rx="0.5" transform="matrix(0.26, -0.97, 0.97, 0.26, 35.86, 293.95)"></rect> <rect class="cls-4" x="213.04" y="100.13" width="1.35" height="8.12" rx="0.5" transform="translate(81.23 301.62) rotate(-82.13)"></rect> <rect class="cls-4" x="198.95" y="128.46" width="1.35" height="8.12" rx="0.5" transform="translate(426.88 208.49) rotate(164.91)"></rect> <rect class="cls-4" x="195.99" y="127.86" width="1.35" height="8.12" rx="0.5" transform="translate(402.75 248.57) rotate(175.66)"></rect> <rect class="cls-4" x="191.71" y="127.61" width="1.35" height="8.12" rx="0.5" transform="translate(344.44 308.4) rotate(-165.09)"></rect> <rect class="cls-4" x="163.57" y="88.24" width="1.35" height="8.12" rx="0.5" transform="translate(117.9 274.91) rotate(-105.09)"></rect> <rect class="cls-4" x="164.63" y="92.16" width="1.35" height="8.12" rx="0.5" transform="translate(164.47 287.48) rotate(-119.95)"></rect> <rect class="cls-4" x="166.04" y="97.38" width="1.35" height="8.12" rx="0.5" transform="translate(162.05 296.54) rotate(-119.95)"></rect> <rect class="cls-4" x="167.45" y="102.61" width="1.35" height="8.12" rx="0.5" transform="translate(159.63 305.6) rotate(-119.95)"></rect> <rect class="cls-4" x="169.81" y="106.18" width="1.35" height="8.12" rx="0.5" transform="translate(160.09 313) rotate(-119.95)"></rect> <rect class="cls-4" x="174.89" y="114.62" width="1.35" height="8.12" rx="0.5" transform="translate(216.13 326.69) rotate(-135.09)"></rect> <rect class="cls-4" x="178.92" y="119.15" width="1.35" height="8.12" rx="0.5" transform="translate(219.82 337.25) rotate(-135.09)"></rect> <rect class="cls-4" x="182.59" y="122.36" width="1.35" height="8.12" rx="0.5" transform="translate(223.82 345.34) rotate(-135.09)"></rect> <rect class="cls-4" x="186.26" y="125.58" width="1.35" height="8.12" rx="0.5" transform="translate(227.82 353.42) rotate(-135.09)"></rect> <rect class="cls-4" x="172.53" y="111.06" width="1.35" height="8.12" rx="0.5" transform="translate(189.35 322.46) rotate(-128.06)"></rect> <rect class="cls-4" x="173.83" y="30.1" width="1.35" height="8.12" rx="0.5" transform="translate(-2.87 46.62) rotate(-15.09)"></rect> <rect class="cls-4" x="176.79" y="30.7" width="1.35" height="8.12" rx="0.5" transform="translate(-2.12 13.54) rotate(-4.34)"></rect> <rect class="cls-4" x="181.06" y="30.95" width="1.35" height="8.12" rx="0.5" transform="translate(15.12 -45.57) rotate(14.91)"></rect> <rect class="cls-4" x="209.21" y="70.32" width="1.35" height="8.12" rx="0.5" transform="matrix(0.26, 0.97, -0.97, 0.26, 227.05, -147.63)"></rect> <rect class="cls-4" x="208.15" y="66.4" width="1.35" height="8.12" rx="0.5" transform="translate(165.62 -145.66) rotate(60.05)"></rect> <rect class="cls-4" x="206.74" y="61.17" width="1.35" height="8.12" rx="0.5" transform="translate(160.38 -147.05) rotate(60.05)"></rect> <rect class="cls-4" x="205.33" y="55.95" width="1.35" height="8.12" rx="0.5" transform="translate(155.15 -148.45) rotate(60.05)"></rect> <rect class="cls-4" x="202.97" y="52.38" width="1.35" height="8.12" rx="0.5" transform="translate(150.87 -148.19) rotate(60.05)"></rect> <rect class="cls-4" x="197.88" y="43.93" width="1.35" height="8.12" rx="0.5" transform="translate(91.81 -126.17) rotate(44.91)"></rect> <rect class="cls-4" x="193.86" y="39.41" width="1.35" height="8.12" rx="0.5" transform="translate(87.44 -124.65) rotate(44.91)"></rect> <rect class="cls-4" x="190.19" y="36.2" width="1.35" height="8.12" rx="0.5" transform="translate(84.1 -123) rotate(44.91)"></rect> <rect class="cls-4" x="186.52" y="32.98" width="1.35" height="8.12" rx="0.5" transform="translate(80.76 -121.34) rotate(44.91)"></rect> <rect class="cls-4" x="200.25" y="47.5" width="1.35" height="8.12" rx="0.5" transform="translate(117.65 -138.43) rotate(51.94)"></rect> <rect class="cls-4" x="173.83" y="30.1" width="1.35" height="8.12" rx="0.5" transform="matrix(-0.97, 0.26, -0.26, -0.97, 351.88, 21.7)"></rect> <rect class="cls-4" x="171.56" y="32.11" width="1.35" height="8.12" rx="0.5" transform="translate(343.02 -6.36) rotate(154.16)"></rect> <rect class="cls-4" x="168" y="34.47" width="1.35" height="8.12" rx="0.5" transform="translate(315.04 -53.73) rotate(134.91)"></rect> <rect class="cls-4" x="163.47" y="82.66" width="1.35" height="8.12" rx="0.5" transform="translate(205.13 -94.35) rotate(74.91)"></rect> <rect class="cls-4" x="162.41" y="78.74" width="1.35" height="8.12" rx="0.5" transform="translate(245.21 -80.63) rotate(89.76)"></rect> <rect class="cls-4" x="161" y="73.51" width="1.35" height="8.12" rx="0.5" transform="translate(238.58 -84.43) rotate(89.76)"></rect> <rect class="cls-4" x="159.59" y="68.28" width="1.35" height="8.12" rx="0.5" transform="translate(231.95 -88.22) rotate(89.76)"></rect> <rect class="cls-4" x="159.84" y="64.01" width="1.35" height="8.12" rx="0.5" transform="translate(227.92 -92.73) rotate(89.76)"></rect> <rect class="cls-4" x="159.99" y="54.16" width="1.35" height="8.12" rx="0.5" transform="matrix(-0.26, 0.97, -0.97, -0.26, 258.25, -82.06)"></rect> <rect class="cls-4" x="161.19" y="48.22" width="1.35" height="8.12" rx="0.5" transform="translate(254.03 -90.69) rotate(104.91)"></rect> <rect class="cls-4" x="162.75" y="43.6" width="1.35" height="8.12" rx="0.5" transform="matrix(-0.26, 0.97, -0.97, -0.26, 251.52, -98)"></rect> <rect class="cls-4" x="164.3" y="38.97" width="1.35" height="8.12" rx="0.5" transform="translate(249 -105.32) rotate(104.91)"></rect> <rect class="cls-4" x="159.74" y="58.43" width="1.35" height="8.12" rx="0.5" transform="translate(244.29 -87.85) rotate(97.87)"></rect> <ellipse class="cls-1" cx="206.31" cy="288.93" rx="33.84" ry="73.78" transform="translate(-138.89 205.96) rotate(-40.96)"></ellipse> <ellipse class="cls-5" cx="213.54" cy="296.82" rx="22.71" ry="49.52" transform="translate(-142.29 212.63) rotate(-40.96)"></ellipse> <ellipse class="cls-3" cx="225.64" cy="319.47" rx="5.41" ry="5.53" transform="translate(-154.17 226.11) rotate(-40.96)"></ellipse> <rect class="cls-4" x="179.96" y="254.26" width="1.35" height="8.12" rx="0.5" transform="translate(486.38 335.01) rotate(139.04)"></rect> <rect class="cls-4" x="178.8" y="257.06" width="1.35" height="8.12" rx="0.5" transform="translate(495.64 282.07) rotate(128.29)"></rect> <rect class="cls-4" x="176.62" y="260.75" width="1.35" height="8.12" rx="0.5" transform="translate(485.46 183.61) rotate(109.04)"></rect> <rect class="cls-4" x="193.57" y="306.08" width="1.35" height="8.12" rx="0.5" transform="translate(301.14 -39.85) rotate(49.04)"></rect> <rect class="cls-4" x="190.91" y="303.01" width="1.35" height="8.12" rx="0.5" transform="matrix(0.44, 0.9, -0.9, 0.44, 383.06, -0.07)"></rect> <rect class="cls-4" x="187.36" y="298.92" width="1.35" height="8.12" rx="0.5" transform="translate(377.4 0.83) rotate(63.9)"></rect> <rect class="cls-4" x="183.81" y="294.84" width="1.35" height="8.12" rx="0.5" transform="translate(371.74 1.73) rotate(63.9)"></rect> <rect class="cls-4" x="182.17" y="290.88" width="1.35" height="8.12" rx="0.5" transform="translate(367.27 0.99) rotate(63.9)"></rect> <rect class="cls-4" x="178" y="281.95" width="1.35" height="8.12" rx="0.5" transform="translate(425.52 56.23) rotate(79.04)"></rect> <rect class="cls-4" x="176.5" y="276.09" width="1.35" height="8.12" rx="0.5" transform="translate(418.54 52.96) rotate(79.04)"></rect> <rect class="cls-4" x="175.88" y="271.25" width="1.35" height="8.12" rx="0.5" transform="translate(413.29 49.64) rotate(79.04)"></rect> <rect class="cls-4" x="175.26" y="266.41" width="1.35" height="8.12" rx="0.5" transform="translate(408.04 46.33) rotate(79.04)"></rect> <rect class="cls-4" x="179.64" y="285.91" width="1.35" height="8.12" rx="0.5" transform="translate(400.42 28.91) rotate(72.01)"></rect> <rect class="cls-4" x="179.96" y="254.26" width="1.35" height="8.12" rx="0.5" transform="translate(-125.11 181.64) rotate(-40.96)"></rect> <rect class="cls-4" x="182.89" y="253.51" width="1.35" height="8.12" rx="0.5" transform="translate(-104.66 127.33) rotate(-30.21)"></rect> <rect class="cls-4" x="186.85" y="251.87" width="1.35" height="8.12" rx="0.5" transform="translate(-45.23 40.31) rotate(-10.96)"></rect> <rect class="cls-4" x="229.34" y="275.03" width="1.35" height="8.12" rx="0.5" transform="translate(290.01 -77.56) rotate(49.04)"></rect> <rect class="cls-4" x="226.68" y="271.96" width="1.35" height="8.12" rx="0.5" transform="translate(194.38 -80.06) rotate(34.19)"></rect> <rect class="cls-4" x="223.13" y="267.87" width="1.35" height="8.12" rx="0.5" transform="translate(191.47 -78.77) rotate(34.19)"></rect> <rect class="cls-4" x="219.59" y="263.78" width="1.35" height="8.12" rx="0.5" transform="translate(188.56 -77.48) rotate(34.19)"></rect> <rect class="cls-4" x="215.9" y="261.6" width="1.35" height="8.12" rx="0.5" transform="translate(186.7 -75.79) rotate(34.19)"></rect> <rect class="cls-4" x="207.65" y="256.22" width="1.35" height="8.12" rx="0.5" transform="translate(96.33 -53.73) rotate(19.04)"></rect> <rect class="cls-4" x="202.05" y="253.91" width="1.35" height="8.12" rx="0.5" transform="translate(95.27 -52.03) rotate(19.04)"></rect> <rect class="cls-4" x="197.35" y="252.62" width="1.35" height="8.12" rx="0.5" transform="translate(94.59 -50.56) rotate(19.04)"></rect> <rect class="cls-4" x="192.64" y="251.32" width="1.35" height="8.12" rx="0.5" transform="translate(93.91 -49.1) rotate(19.04)"></rect> <rect class="cls-4" x="211.33" y="258.4" width="1.35" height="8.12" rx="0.5" transform="translate(136.95 -66.48) rotate(26.08)"></rect> <rect class="cls-4" x="245.48" y="331.82" width="1.35" height="8.12" rx="0.5" transform="translate(652.22 428.18) rotate(139.04)"></rect> <rect class="cls-4" x="242.55" y="332.57" width="1.35" height="8.12" rx="0.5" transform="translate(622.79 505.18) rotate(149.79)"></rect> <rect class="cls-4" x="238.59" y="334.21" width="1.35" height="8.12" rx="0.5" transform="translate(538.47 624.9) rotate(169.04)"></rect> <rect class="cls-4" x="196.09" y="311.06" width="1.35" height="8.12" rx="0.5" transform="translate(87.77 670.27) rotate(-130.96)"></rect> <rect class="cls-4" x="198.76" y="314.12" width="1.35" height="8.12" rx="0.5" transform="translate(185.62 693.45) rotate(-145.81)"></rect> <rect class="cls-4" x="202.31" y="318.21" width="1.35" height="8.12" rx="0.5" transform="translate(189.81 702.91) rotate(-145.81)"></rect> <rect class="cls-4" x="205.85" y="322.3" width="1.35" height="8.12" rx="0.5" transform="translate(194 712.38) rotate(-145.81)"></rect> <rect class="cls-4" x="209.54" y="324.48" width="1.35" height="8.12" rx="0.5" transform="translate(199.5 718.43) rotate(-145.81)"></rect> <rect class="cls-4" x="217.79" y="329.86" width="1.35" height="8.12" rx="0.5" transform="translate(316.03 720.85) rotate(-160.96)"></rect> <rect class="cls-4" x="223.39" y="332.17" width="1.35" height="8.12" rx="0.5" transform="translate(326.15 727.18) rotate(-160.96)"></rect> <rect class="cls-4" x="228.09" y="333.47" width="1.35" height="8.12" rx="0.5" transform="translate(334.89 731.23) rotate(-160.96)"></rect> <rect class="cls-4" x="232.8" y="334.76" width="1.35" height="8.12" rx="0.5" transform="translate(343.62 735.27) rotate(-160.96)"></rect> <rect class="cls-4" x="214.11" y="327.68" width="1.35" height="8.12" rx="0.5" transform="translate(261.88 724.13) rotate(-153.92)"></rect> <rect class="cls-4" x="245.48" y="331.82" width="1.35" height="8.12" rx="0.5" transform="translate(-159.91 243.57) rotate(-40.96)"></rect> <rect class="cls-4" x="246.64" y="329.02" width="1.35" height="8.12" rx="0.5" transform="translate(-167.36 320.77) rotate(-51.71)"></rect> <rect class="cls-4" x="248.82" y="325.34" width="1.35" height="8.12" rx="0.5" transform="translate(-143.28 457.76) rotate(-70.96)"></rect> <rect class="cls-4" x="231.87" y="280" width="1.35" height="8.12" rx="0.5" transform="translate(170.45 645.88) rotate(-130.96)"></rect> <rect class="cls-4" x="234.53" y="283.07" width="1.35" height="8.12" rx="0.5" transform="translate(80.83 624.67) rotate(-116.1)"></rect> <rect class="cls-4" x="238.08" y="287.16" width="1.35" height="8.12" rx="0.5" transform="translate(82.27 633.75) rotate(-116.1)"></rect> <rect class="cls-4" x="241.63" y="291.25" width="1.35" height="8.12" rx="0.5" transform="translate(83.71 642.82) rotate(-116.1)"></rect> <rect class="cls-4" x="243.27" y="295.2" width="1.35" height="8.12" rx="0.5" transform="translate(82.52 649.99) rotate(-116.1)"></rect> <rect class="cls-4" x="247.44" y="304.13" width="1.35" height="8.12" rx="0.5" transform="matrix(-0.19, -0.98, 0.98, -0.19, -7.3, 610.36)"></rect> <rect class="cls-4" x="248.94" y="309.99" width="1.35" height="8.12" rx="0.5" transform="matrix(-0.19, -0.98, 0.98, -0.19, -11.27, 618.81)"></rect> <rect class="cls-4" x="249.56" y="314.83" width="1.35" height="8.12" rx="0.5" transform="translate(-15.29 625.18) rotate(-100.96)"></rect> <rect class="cls-4" x="250.18" y="319.68" width="1.35" height="8.12" rx="0.5" transform="translate(-19.31 631.55) rotate(-100.96)"></rect> <rect class="cls-4" x="245.8" y="300.18" width="1.35" height="8.12" rx="0.5" transform="translate(33.23 632.62) rotate(-107.99)"></rect> <ellipse class="cls-1" cx="273.26" cy="181.87" rx="64.34" ry="29.51" transform="translate(33.14 405.68) rotate(-76.63)"></ellipse> <ellipse class="cls-5" cx="275.17" cy="172.74" rx="43.19" ry="19.81" transform="translate(43.49 400.51) rotate(-76.63)"></ellipse> <ellipse class="cls-3" cx="285.06" cy="152.64" rx="4.83" ry="4.72" transform="translate(70.64 394.69) rotate(-76.63)"></ellipse> <rect class="cls-4" x="264.05" y="212.08" width="1.18" height="7.08" rx="0.45" transform="translate(57.02 -55.34) rotate(13.37)"></rect> <rect class="cls-4" x="266.62" y="211.48" width="1.18" height="7.08" rx="0.45" transform="translate(10.1 -11.98) rotate(2.62)"></rect> <rect class="cls-4" x="270.33" y="211.15" width="1.18" height="7.08" rx="0.45" transform="translate(-50.11 86.52) rotate(-16.63)"></rect> <rect class="cls-4" x="293.83" y="176.09" width="1.18" height="7.08" rx="0.45" transform="translate(51.58 424.54) rotate(-76.63)"></rect> <rect class="cls-4" x="293.01" y="179.54" width="1.18" height="7.08" rx="0.45" transform="translate(-6.56 355.18) rotate(-61.77)"></rect> <rect class="cls-4" x="291.92" y="184.13" width="1.18" height="7.08" rx="0.45" transform="translate(-11.19 356.64) rotate(-61.77)"></rect> <rect class="cls-4" x="290.83" y="188.72" width="1.18" height="7.08" rx="0.45" transform="translate(-15.81 358.1) rotate(-61.77)"></rect> <rect class="cls-4" x="288.86" y="191.9" width="1.18" height="7.08" rx="0.45" transform="translate(-19.64 358.04) rotate(-61.77)"></rect> <rect class="cls-4" x="284.65" y="199.39" width="1.18" height="7.08" rx="0.45" transform="translate(-58.15 270.94) rotate(-46.63)"></rect> <rect class="cls-4" x="281.27" y="203.44" width="1.18" height="7.08" rx="0.45" transform="translate(-62.15 269.75) rotate(-46.63)"></rect> <rect class="cls-4" x="278.15" y="206.34" width="1.18" height="7.08" rx="0.45" transform="translate(-65.24 268.39) rotate(-46.63)"></rect> <rect class="cls-4" x="275.04" y="209.24" width="1.18" height="7.08" rx="0.45" transform="translate(-68.32 267.03) rotate(-46.63)"></rect> <rect class="cls-4" x="286.62" y="196.22" width="1.18" height="7.08" rx="0.45" transform="translate(-43.88 312.77) rotate(-53.66)"></rect> <rect class="cls-4" x="264.05" y="212.08" width="1.18" height="7.08" rx="0.45" transform="translate(472.25 486.59) rotate(-166.63)"></rect> <rect class="cls-4" x="262.02" y="210.39" width="1.18" height="7.08" rx="0.45" transform="translate(414.88 516.49) rotate(-155.88)"></rect> <rect class="cls-4" x="258.85" y="208.42" width="1.18" height="7.08" rx="0.45" transform="translate(302.49 544.2) rotate(-136.63)"></rect> <rect class="cls-4" x="253.64" y="166.54" width="1.18" height="7.08" rx="0.45" transform="translate(29.98 378.1) rotate(-76.63)"></rect> <rect class="cls-4" x="252.82" y="169.98" width="1.18" height="7.08" rx="0.45" transform="translate(86.53 431.36) rotate(-91.49)"></rect> <rect class="cls-4" x="251.73" y="174.58" width="1.18" height="7.08" rx="0.45" transform="translate(80.81 434.98) rotate(-91.49)"></rect> <rect class="cls-4" x="250.64" y="179.17" width="1.18" height="7.08" rx="0.45" transform="translate(75.1 438.6) rotate(-91.49)"></rect> <rect class="cls-4" x="250.97" y="182.89" width="1.18" height="7.08" rx="0.45" transform="translate(71.72 442.74) rotate(-91.49)"></rect> <rect class="cls-4" x="251.35" y="191.47" width="1.18" height="7.08" rx="0.45" transform="translate(137.2 492.23) rotate(-106.63)"></rect> <rect class="cls-4" x="252.56" y="196.61" width="1.18" height="7.08" rx="0.45" transform="translate(133.82 500) rotate(-106.63)"></rect> <rect class="cls-4" x="254.03" y="200.6" width="1.18" height="7.08" rx="0.45" transform="translate(131.9 506.55) rotate(-106.63)"></rect> <rect class="cls-4" x="255.51" y="204.6" width="1.18" height="7.08" rx="0.45" transform="matrix(-0.29, -0.96, 0.96, -0.29, 129.98, 513.1)"></rect> <rect class="cls-4" x="251.02" y="187.76" width="1.18" height="7.08" rx="0.45" transform="translate(104.95 471.29) rotate(-99.6)"></rect> <rect class="cls-4" x="285.66" y="126.23" width="1.18" height="7.08" rx="0.45" transform="translate(37.76 -62.67) rotate(13.37)"></rect> <rect class="cls-4" x="287.69" y="127.92" width="1.18" height="7.08" rx="0.45" transform="translate(78.88 -106.32) rotate(24.12)"></rect> <rect class="cls-4" x="290.86" y="129.89" width="1.18" height="7.08" rx="0.45" transform="translate(171.2 -163.7) rotate(43.37)"></rect> <rect class="cls-4" x="296.07" y="171.77" width="1.18" height="7.08" rx="0.45" transform="translate(535.81 -72.78) rotate(103.37)"></rect> <rect class="cls-4" x="296.89" y="168.33" width="1.18" height="7.08" rx="0.45" transform="translate(461.56 -129.98) rotate(88.51)"></rect> <rect class="cls-4" x="297.98" y="163.73" width="1.18" height="7.08" rx="0.45" transform="translate(458.03 -135.54) rotate(88.51)"></rect> <rect class="cls-4" x="299.07" y="159.14" width="1.18" height="7.08" rx="0.45" transform="matrix(0.03, 1, -1, 0.03, 454.5, -141.11)"></rect> <rect class="cls-4" x="298.74" y="155.42" width="1.18" height="7.08" rx="0.45" transform="translate(450.47 -144.4) rotate(88.51)"></rect> <rect class="cls-4" x="298.36" y="146.84" width="1.18" height="7.08" rx="0.45" transform="translate(357.47 -179.1) rotate(73.37)"></rect> <rect class="cls-4" x="297.15" y="141.7" width="1.18" height="7.08" rx="0.45" transform="translate(351.68 -181.62) rotate(73.37)"></rect> <rect class="cls-4" x="295.67" y="137.71" width="1.18" height="7.08" rx="0.45" transform="translate(346.81 -183.05) rotate(73.37)"></rect> <rect class="cls-4" x="294.2" y="133.72" width="1.18" height="7.08" rx="0.45" transform="translate(341.93 -184.48) rotate(73.37)"></rect> <rect class="cls-4" x="298.69" y="150.55" width="1.18" height="7.08" rx="0.45" transform="translate(401.31 -166.69) rotate(80.4)"></rect> <rect class="cls-4" x="285.66" y="126.23" width="1.18" height="7.08" rx="0.45" transform="translate(534.75 322.2) rotate(-166.63)"></rect> <rect class="cls-4" x="283.09" y="126.83" width="1.18" height="7.08" rx="0.45" transform="translate(561.11 273.57) rotate(-177.38)"></rect> <rect class="cls-4" x="279.37" y="127.16" width="1.18" height="7.08" rx="0.45" transform="translate(585.63 175.8) rotate(163.37)"></rect> <rect class="cls-4" x="255.88" y="162.22" width="1.18" height="7.08" rx="0.45" transform="translate(477.03 -45.43) rotate(103.37)"></rect> <rect class="cls-4" x="256.7" y="158.77" width="1.18" height="7.08" rx="0.45" transform="translate(521.98 12.39) rotate(118.23)"></rect> <rect class="cls-4" x="257.79" y="154.18" width="1.18" height="7.08" rx="0.45" transform="translate(519.54 4.66) rotate(118.23)"></rect> <rect class="cls-4" x="258.88" y="149.59" width="1.18" height="7.08" rx="0.45" transform="translate(517.1 -3.07) rotate(118.23)"></rect> <rect class="cls-4" x="260.85" y="146.41" width="1.18" height="7.08" rx="0.45" transform="matrix(-0.47, 0.88, -0.88, -0.47, 517.21, -9.48)"></rect> <rect class="cls-4" x="265.05" y="138.92" width="1.18" height="7.08" rx="0.45" transform="translate(551.62 47.18) rotate(133.37)"></rect> <rect class="cls-4" x="268.44" y="134.87" width="1.18" height="7.08" rx="0.45" transform="translate(554.39 37.89) rotate(133.37)"></rect> <rect class="cls-4" x="271.56" y="131.97" width="1.18" height="7.08" rx="0.45" transform="translate(557.54 30.73) rotate(133.37)"></rect> <rect class="cls-4" x="274.67" y="129.08" width="1.18" height="7.08" rx="0.45" transform="translate(560.69 23.58) rotate(133.37)"></rect> <rect class="cls-4" x="263.09" y="142.09" width="1.18" height="7.08" rx="0.45" transform="translate(537.23 19.52) rotate(126.34)"></rect> <rect class="cls-6" x="191.15" y="63.36" width="10.98" height="95.69" transform="translate(66.39 -73.37) rotate(25.3)"></rect> <rect class="cls-6" x="191.15" y="63.36" width="10.98" height="95.69" transform="translate(381.22 -19.04) rotate(115.3)"></rect> <rect class="cls-6" x="315.1" y="258.67" width="10.98" height="95.69" transform="translate(161.75 -107.61) rotate(25.3)"></rect> <rect class="cls-6" x="315.1" y="258.67" width="10.98" height="95.69" transform="translate(734.72 147.67) rotate(115.3)"></rect> <rect class="cls-6" x="192.48" y="230.38" width="10.98" height="95.69" transform="translate(65.96 -36.7) rotate(12.69)"></rect> <rect class="cls-6" x="192.48" y="230.38" width="10.98" height="95.69" transform="translate(512.9 146.22) rotate(102.69)"></rect> </svg> 