<?xml version="1.0" encoding="UTF-8"?> <svg xmlns="http://www.w3.org/2000/svg" id="Слой_1" data-name="Слой 1" viewBox="0 0 400 400"> <defs> <style>.cls-1{fill:#1d3e67;}.cls-2{fill:#ce159c;}</style> </defs> <circle class="cls-1" cx="131.5" cy="252.5" r="53.5"></circle> <path class="cls-2" d="M131.28,252.5c-20.07,0-36.34.45-36.34.22,0-1.9-5.18-2.86-4.9-4.68.11-.7,5.56-2.3,5.71-3s.27-1.2.43-1.78-5.48-.8-5.25-1.48c.28-.85,6.47-2.26,6.81-3.08s-7.15-.69-6.81-1.38,8.4-2,8.74-2.56.62-1.05,1-1.57c.43-.67-2.58-1.91-2.11-2.56.68-.93,4.87-1.24,5.64-2.1s-2.54-5.54-1.63-6.37,6.34,1.91,7.49,1.08-3.28-7.56-2.14-8.21c.92-.52,7.3,5.08,8.27,4.63s.93-2,2-2.4c.71-.25,2.53.68,3.25.47S122.43,207.16,123,207s1.58,10,2.33,9.85c.59-.1,1.08-1.75,1.68-1.82,1.36-.15,2.84,1.34,4.24,1.34"></path> <path class="cls-2" d="M131.28,251.89c-20.07,0-36.34-.44-36.34-.22,0,1.9-5.18,2.86-4.9,4.68.11.7,5.56,2.3,5.71,3s.27,1.19.43,1.78-5.48.79-5.25,1.47c.28.85,6.47,2.27,6.81,3.08s-7.15.69-6.81,1.38,8.4,2,8.74,2.56.62,1.06,1,1.57c.43.68-2.58,1.91-2.11,2.56.68.93,4.87,1.24,5.64,2.1s-2.54,5.54-1.63,6.37,6.34-1.91,7.49-1.08-3.28,7.56-2.14,8.21c.92.53,7.3-5.08,8.27-4.63s.93,2,2,2.4c.71.25,2.53-.68,3.25-.47s1.06,10.59,1.66,10.73,1.58-10,2.33-9.85c.59.1,1.08,1.75,1.68,1.82,1.36.16,2.84-1.34,4.24-1.34"></path> <path class="cls-2" d="M129.71,252.5c20.06,0,36.33.45,36.33.22,0-1.9,5.19-2.86,4.91-4.68-.11-.7-5.57-2.3-5.72-3s-.27-1.2-.43-1.78,5.48-.8,5.25-1.48c-.28-.85-6.46-2.26-6.81-3.08s7.15-.69,6.81-1.38-8.4-2-8.74-2.56-.62-1.05-.95-1.57c-.43-.67,2.59-1.91,2.11-2.56-.68-.93-4.87-1.24-5.64-2.1s2.54-5.54,1.63-6.37-6.34,1.91-7.48,1.08,3.27-7.56,2.13-8.21c-.92-.52-7.3,5.08-8.26,4.63s-.94-2-2-2.4c-.71-.25-2.52.68-3.25.47S138.55,207.16,138,207s-1.58,10-2.32,9.85c-.59-.1-1.09-1.75-1.69-1.82-1.35-.15-2.84,1.34-4.23,1.34"></path> <path class="cls-2" d="M129.71,251.89c20.06,0,36.33-.44,36.33-.22,0,1.9,5.19,2.86,4.91,4.68-.11.7-5.57,2.3-5.72,3s-.27,1.19-.43,1.78,5.48.79,5.25,1.47c-.28.85-6.46,2.27-6.81,3.08s7.15.69,6.81,1.38-8.4,2-8.74,2.56-.62,1.06-.95,1.57c-.43.68,2.59,1.91,2.11,2.56-.68.93-4.87,1.24-5.64,2.1s2.54,5.54,1.63,6.37-6.34-1.91-7.48-1.08,3.27,7.56,2.13,8.21c-.92.53-7.3-5.08-8.26-4.63s-.94,2-2,2.4c-.71.25-2.52-.68-3.25-.47s-1.06,10.59-1.66,10.73-1.58-10-2.32-9.85c-.59.1-1.09,1.75-1.69,1.82-1.35.16-2.84-1.34-4.23-1.34"></path> <circle class="cls-1" cx="220.5" cy="83.5" r="53.5"></circle> <path class="cls-2" d="M220.28,83.5c-20.07,0-36.34.45-36.34.22,0-1.9-5.18-2.86-4.9-4.68.11-.7,5.56-2.3,5.71-3s.27-1.2.43-1.78-5.48-.8-5.25-1.48c.28-.85,6.47-2.26,6.81-3.08s-7.15-.69-6.81-1.38,8.4-2,8.74-2.56.62-1,1-1.57-2.58-1.91-2.11-2.56c.68-.93,4.87-1.24,5.64-2.1s-2.54-5.54-1.63-6.37,6.34,1.91,7.49,1.08-3.28-7.56-2.14-8.21c.92-.52,7.3,5.08,8.27,4.63s.93-2,2-2.4c.71-.25,2.53.68,3.25.47S211.43,38.16,212,38s1.58,10,2.33,9.85c.59-.1,1.08-1.75,1.68-1.82,1.36-.15,2.84,1.34,4.24,1.34"></path> <path class="cls-2" d="M220.28,82.89c-20.07,0-36.34-.44-36.34-.22,0,1.9-5.18,2.86-4.9,4.68.11.7,5.56,2.3,5.71,3s.27,1.19.43,1.78-5.48.79-5.25,1.47c.28.85,6.47,2.27,6.81,3.08s-7.15.69-6.81,1.38,8.4,2,8.74,2.56.62,1.06,1,1.57c.43.68-2.58,1.91-2.11,2.56.68.93,4.87,1.24,5.64,2.1s-2.54,5.54-1.63,6.37,6.34-1.91,7.49-1.08-3.28,7.56-2.14,8.21c.92.53,7.3-5.08,8.27-4.63s.93,2,2,2.4c.71.25,2.53-.68,3.25-.47s1.06,10.59,1.66,10.73,1.58-10,2.33-9.85c.59.1,1.08,1.75,1.68,1.82,1.36.16,2.84-1.34,4.24-1.34"></path> <path class="cls-2" d="M218.71,83.5c20.06,0,36.33.45,36.33.22,0-1.9,5.19-2.86,4.91-4.68-.11-.7-5.57-2.3-5.72-3s-.27-1.2-.43-1.78,5.48-.8,5.25-1.48c-.28-.85-6.46-2.26-6.81-3.08s7.15-.69,6.81-1.38-8.4-2-8.74-2.56-.62-1-.95-1.57,2.59-1.91,2.11-2.56c-.68-.93-4.87-1.24-5.64-2.1s2.54-5.54,1.63-6.37-6.34,1.91-7.48,1.08,3.27-7.56,2.13-8.21c-.92-.52-7.3,5.08-8.26,4.63s-.94-2-2-2.4c-.71-.25-2.52.68-3.25.47S227.55,38.16,227,38s-1.58,10-2.32,9.85c-.59-.1-1.09-1.75-1.69-1.82-1.35-.15-2.84,1.34-4.23,1.34"></path> <path class="cls-2" d="M218.71,82.89c20.06,0,36.33-.44,36.33-.22,0,1.9,5.19,2.86,4.91,4.68-.11.7-5.57,2.3-5.72,3s-.27,1.19-.43,1.78,5.48.79,5.25,1.47c-.28.85-6.46,2.27-6.81,3.08s7.15.69,6.81,1.38-8.4,2-8.74,2.56-.62,1.06-.95,1.57c-.43.68,2.59,1.91,2.11,2.56-.68.93-4.87,1.24-5.64,2.1s2.54,5.54,1.63,6.37-6.34-1.91-7.48-1.08,3.27,7.56,2.13,8.21c-.92.53-7.3-5.08-8.26-4.63s-.94,2-2,2.4c-.71.25-2.52-.68-3.25-.47s-1.06,10.59-1.66,10.73-1.58-10-2.32-9.85c-.59.1-1.09,1.75-1.69,1.82-1.35.16-2.84-1.34-4.23-1.34"></path> <circle class="cls-1" cx="229" cy="189" r="40"></circle> <path class="cls-2" d="M228.89,188.87c-9.63-11.5-17.7-20.61-17.57-20.72,1.09-.91-.85-4.34.33-5.05.45-.28,4,2.08,4.45,1.84s.82-.42,1.23-.61-2.17-3.52-1.68-3.72,4.41,2.62,5,2.42-3-4.43-2.48-4.56,5.16,3.87,5.66,3.78.91-.15,1.36-.21-.14-2.4.45-2.44c.86,0,3.06,2.2,3.92,2.23s2-4.12,2.86-4,2,4.55,3,4.8,2.76-5.5,3.68-5.16c.74.27.59,6.62,1.31,7s1.62-.44,2.34,0c.48.29.82,1.78,1.28,2.09s6.58-4.47,6.95-4.2-5,5.69-4.53,6.06,1.53-.22,1.85.09c.74.71.6,2.27,1.27,3.07"></path> <path class="cls-2" d="M229.24,188.58c-9.63-11.5-17.19-21-17.32-20.93-1.08.91-4.12-1.6-5-.57-.35.4,1.35,4.3,1,4.71s-.55.73-.81,1.1-3.09-2.75-3.37-2.3,1.81,4.8,1.5,5.38-3.83-3.76-4.06-3.24,2.91,5.76,2.73,6.24-.31.86-.44,1.3-2.34-.56-2.48,0c-.21.83,1.62,3.39,1.5,4.24s-4.39,1.21-4.43,2.12,4.14,2.73,4.21,3.78-5.9,1.75-5.73,2.71c.14.78,6.41,1.75,6.62,2.52s-.71,1.51-.42,2.29c.2.52,1.6,1.12,1.83,1.63s-5.56,5.7-5.35,6.11,6.47-3.88,6.76-3.4-.49,1.47-.24,1.84c.57.85,2.13,1,2.8,1.79"></path> <path class="cls-2" d="M228.14,188c9.63,11.5,17.19,21,17.32,20.93,1.08-.91,4.12,1.6,5,.57.35-.4-1.35-4.3-1-4.71s.55-.73.81-1.1,3.09,2.76,3.37,2.3-1.81-4.79-1.5-5.38,3.83,3.77,4.06,3.24-2.91-5.76-2.73-6.24.31-.86.44-1.3,2.34.56,2.48,0c.21-.83-1.62-3.39-1.5-4.24s4.39-1.2,4.43-2.12-4.14-2.72-4.21-3.77,5.91-1.76,5.73-2.72c-.14-.78-6.41-1.75-6.62-2.52s.71-1.51.42-2.29c-.2-.52-1.6-1.12-1.83-1.63s5.56-5.7,5.35-6.1-6.47,3.88-6.76,3.39.49-1.46.24-1.84c-.57-.85-2.13-1-2.8-1.79"></path> <path class="cls-2" d="M228.49,187.68c9.63,11.5,17.7,20.61,17.57,20.72-1.09.91.85,4.34-.33,5.06-.45.27-4-2.09-4.45-1.85s-.82.42-1.23.61,2.17,3.53,1.68,3.72-4.41-2.62-5-2.42,3,4.43,2.48,4.56-5.16-3.87-5.66-3.78-.91.15-1.36.21.14,2.4-.45,2.44c-.86.05-3.06-2.2-3.92-2.22s-1.95,4.11-2.86,4-2-4.55-3-4.81-2.76,5.51-3.68,5.16c-.74-.27-.59-6.62-1.31-7s-1.62.44-2.34,0c-.48-.29-.82-1.77-1.28-2.09s-6.58,4.48-7,4.2,5-5.69,4.53-6.06-1.53.22-1.85-.09c-.74-.71-.6-2.27-1.27-3.07"></path> <circle class="cls-1" cx="288" cy="262" r="40"></circle> <path class="cls-2" d="M287.85,261.93c-13.82-5.85-25.15-10.28-25.08-10.44.55-1.31-2.74-3.48-2-4.65.27-.45,4.5,0,4.8-.39s.54-.74.82-1.1-3.54-2.15-3.19-2.55,5.11.33,5.59-.13-4.73-2.56-4.29-2.94,6.35,1.1,6.76.79.74-.55,1.12-.81-1.22-2.07-.71-2.37c.74-.44,3.72.56,4.5.19s-.14-4.55.73-4.85,3.81,3.16,4.84,2.92-.05-6.16.92-6.27c.79-.1,3.55,5.62,4.34,5.6s1.24-1.13,2.07-1.08c.56,0,1.54,1.21,2.1,1.28s3.82-7,4.27-6.91-1.82,7.32-1.27,7.46,1.26-.89,1.69-.76c1,.29,1.57,1.75,2.53,2.15"></path> <path class="cls-2" d="M288,261.52c-13.81-5.86-24.88-10.91-24.95-10.75-.55,1.3-4.4.45-4.74,1.79-.13.51,3.16,3.21,3.07,3.72s-.16.9-.23,1.35-4-1.05-4-.51,3.79,3.44,3.79,4.1-5.13-1.61-5.09-1,5.21,3.8,5.27,4.32.12.9.19,1.36-2.33.56-2.2,1.14c.2.84,3,2.28,3.27,3.09s-3.36,3.08-3,3.91,4.92.54,5.46,1.44-4.46,4.25-3.86,5c.48.63,6.5-1.36,7-.78s.05,1.68.67,2.24c.41.37,1.93.26,2.37.62s-2.36,7.6-2,7.87,4-6.4,4.48-6.1.23,1.52.63,1.74c.89.5,2.34-.09,3.3.32"></path> <path class="cls-2" d="M286.76,261.48c13.82,5.85,24.89,10.9,24.95,10.75.56-1.31,4.41-.46,4.75-1.8.13-.51-3.17-3.2-3.07-3.72s.16-.9.23-1.35,4,1.05,4,.52-3.79-3.45-3.79-4.11,5.13,1.61,5.09,1-5.21-3.8-5.27-4.31-.12-.91-.19-1.36,2.33-.57,2.2-1.15c-.2-.84-3-2.28-3.27-3.09s3.35-3.07,3-3.91-4.92-.54-5.46-1.44,4.46-4.25,3.86-5-6.5,1.37-7,.78-.05-1.67-.67-2.24c-.41-.37-1.93-.26-2.37-.61s2.36-7.61,2-7.87-4,6.4-4.47,6.09-.23-1.52-.63-1.74c-.89-.5-2.34.09-3.3-.31"></path> <path class="cls-2" d="M286.94,261.06c13.82,5.85,25.15,10.29,25.08,10.44-.55,1.31,2.74,3.48,2,4.65-.28.45-4.5,0-4.8.39s-.54.74-.82,1.1,3.54,2.15,3.19,2.55-5.11-.33-5.59.14,4.72,2.56,4.29,2.93-6.36-1.1-6.77-.79-.73.55-1.11.81,1.22,2.07.71,2.37c-.74.44-3.72-.56-4.5-.19s.13,4.55-.73,4.86-3.81-3.17-4.84-2.93.05,6.16-.93,6.28c-.78.09-3.54-5.63-4.34-5.6s-1.23,1.12-2.07,1.07c-.55,0-1.53-1.2-2.09-1.27s-3.82,7-4.27,6.9,1.82-7.32,1.27-7.45-1.26.88-1.69.76c-1-.29-1.57-1.75-2.53-2.16"></path> <circle class="cls-1" cx="272" cy="337" r="25"></circle> <path class="cls-2" d="M271.93,336.92c-6-7.19-11.06-12.88-11-12.95.68-.57-.53-2.71.21-3.16.28-.17,2.49,1.3,2.78,1.15l.77-.38c.3-.14-1.36-2.2-1-2.32s2.75,1.63,3.15,1.51-1.9-2.77-1.55-2.85,3.22,2.42,3.54,2.36l.84-.13c.37,0-.09-1.5.29-1.52s1.9,1.37,2.44,1.39,1.22-2.57,1.79-2.5,1.23,2.85,1.86,3,1.73-3.44,2.3-3.23.38,4.14.83,4.35,1-.28,1.45,0c.3.18.52,1.11.81,1.31s4.11-2.8,4.34-2.63-3.1,3.56-2.83,3.79.95-.14,1.16.06c.46.44.37,1.41.79,1.91"></path> <path class="cls-2" d="M272.15,336.74c-6-7.19-10.74-13.15-10.82-13.08-.68.57-2.58-1-3.15-.36-.22.25.85,2.69.64,2.95s-.34.45-.5.68-1.93-1.72-2.11-1.43,1.13,3,.94,3.36-2.39-2.36-2.54-2,1.82,3.6,1.71,3.9-.19.54-.28.81-1.46-.35-1.55,0c-.13.53,1,2.12.94,2.66s-2.74.75-2.77,1.32,2.59,1.71,2.63,2.36-3.69,1.1-3.58,1.7,4,1.09,4.14,1.57-.45.95-.26,1.44c.12.32,1,.69,1.14,1s-3.47,3.56-3.34,3.82,4-2.43,4.22-2.12-.3.91-.15,1.15c.36.53,1.34.61,1.75,1.11"></path> <path class="cls-2" d="M271.46,336.36c6,7.19,10.74,13.15,10.82,13.08.68-.57,2.58,1,3.15.35.22-.25-.84-2.68-.64-2.94l.51-.69c.19-.27,1.93,1.73,2.1,1.44s-1.13-3-.94-3.36,2.39,2.35,2.54,2-1.82-3.59-1.71-3.9.19-.54.28-.81,1.46.35,1.55,0c.13-.52-1-2.12-.94-2.65s2.74-.75,2.77-1.33-2.59-1.7-2.63-2.36,3.69-1.09,3.58-1.7-4-1.09-4.14-1.57.45-.94.26-1.43c-.12-.33-1-.7-1.14-1s3.48-3.56,3.35-3.81-4.05,2.42-4.23,2.12.3-.92.15-1.15c-.35-.53-1.33-.62-1.75-1.12"></path> <path class="cls-2" d="M271.68,336.18c6,7.18,11.06,12.88,11,12.94-.68.57.53,2.72-.2,3.17-.29.17-2.5-1.31-2.79-1.16s-.51.26-.76.38,1.35,2.21,1,2.33-2.75-1.64-3.14-1.52,1.9,2.77,1.55,2.86-3.23-2.42-3.54-2.37L274,353c-.37,0,.09,1.49-.28,1.52-.54,0-1.91-1.37-2.45-1.39s-1.22,2.57-1.79,2.49-1.22-2.84-1.86-3-1.73,3.44-2.3,3.23-.37-4.14-.82-4.35-1,.27-1.46,0-.51-1.1-.8-1.3-4.12,2.8-4.35,2.62,3.1-3.55,2.83-3.78-.95.13-1.16-.06c-.46-.44-.37-1.42-.79-1.92"></path> <circle class="cls-1" cx="219" cy="301" r="29"></circle> <path class="cls-2" d="M218.92,300.91c-7-8.34-12.83-15-12.74-15,.79-.66-.61-3.15.24-3.67.33-.2,2.89,1.51,3.23,1.33l.89-.44c.35-.16-1.58-2.55-1.22-2.69s3.2,1.9,3.65,1.75-2.2-3.21-1.79-3.3,3.73,2.81,4.1,2.74l1-.16c.43-.05-.11-1.74.32-1.76.63,0,2.22,1.59,2.84,1.61s1.42-3,2.08-2.89,1.42,3.29,2.16,3.48,2-4,2.67-3.74.43,4.8.95,5,1.17-.32,1.69,0c.35.21.59,1.29.93,1.52s4.77-3.25,5-3.05-3.59,4.13-3.28,4.39,1.1-.15,1.34.07c.54.51.43,1.65.92,2.23"></path> <path class="cls-2" d="M219.17,300.7c-7-8.34-12.46-15.26-12.55-15.18-.79.66-3-1.16-3.65-.41-.26.29,1,3.12.75,3.42s-.4.52-.59.79-2.24-2-2.45-1.67,1.32,3.48,1.09,3.91-2.77-2.74-2.94-2.35,2.11,4.17,2,4.52-.22.63-.32.94-1.7-.41-1.8,0c-.15.61,1.18,2.46,1.09,3.08s-3.18.87-3.21,1.54,3,2,3.05,2.73-4.28,1.28-4.15,2,4.65,1.26,4.8,1.82-.52,1.09-.31,1.66c.14.38,1.16.81,1.33,1.18s-4,4.13-3.88,4.43,4.69-2.82,4.9-2.46-.35,1.06-.17,1.33c.41.62,1.54.72,2,1.3"></path> <path class="cls-2" d="M218.37,300.25c7,8.34,12.47,15.26,12.56,15.18.79-.66,3,1.16,3.65.41.26-.29-1-3.11-.75-3.41s.4-.53.59-.8,2.24,2,2.45,1.67-1.32-3.48-1.09-3.91,2.77,2.74,2.94,2.35-2.11-4.17-2-4.52.22-.62.32-.94,1.7.41,1.8,0c.15-.61-1.18-2.46-1.09-3.08s3.18-.87,3.21-1.54-3-2-3-2.73,4.28-1.27,4.15-2-4.65-1.27-4.8-1.83.52-1.09.31-1.66c-.14-.38-1.16-.81-1.33-1.18s4-4.13,3.88-4.43-4.69,2.82-4.9,2.46.35-1.06.17-1.33c-.41-.62-1.54-.71-2-1.29"></path> <path class="cls-2" d="M218.63,300c7,8.34,12.83,14.95,12.74,15-.79.67.61,3.15-.24,3.67-.33.2-2.89-1.51-3.23-1.33l-.89.44c-.35.16,1.58,2.55,1.22,2.69s-3.2-1.9-3.65-1.75,2.2,3.21,1.79,3.31-3.73-2.81-4.1-2.75l-1,.16c-.43.05.11,1.74-.32,1.76-.63,0-2.22-1.59-2.84-1.61s-1.42,3-2.08,2.89-1.42-3.29-2.16-3.48-2,4-2.67,3.74-.43-4.8-1-5-1.17.32-1.69,0c-.35-.21-.59-1.29-.93-1.52s-4.77,3.25-5,3.05,3.59-4.13,3.28-4.39-1.1.15-1.34-.07c-.54-.51-.43-1.65-.92-2.23"></path> <circle class="cls-1" cx="137" cy="137" r="22"></circle> <path class="cls-2" d="M136.94,136.93c-5.3-6.33-9.73-11.34-9.66-11.4.6-.5-.47-2.39.18-2.78.25-.15,2.19,1.15,2.45,1l.67-.34c.27-.12-1.19-1.94-.92-2s2.42,1.44,2.77,1.33-1.67-2.44-1.36-2.51,2.83,2.13,3.11,2.08.5-.09.75-.12-.08-1.32.24-1.34c.48,0,1.68,1.21,2.16,1.22s1.07-2.26,1.57-2.19,1.08,2.5,1.64,2.64,1.52-3,2-2.84.32,3.64.72,3.83.89-.24,1.28,0,.45,1,.71,1.15,3.62-2.46,3.82-2.31-2.73,3.13-2.49,3.33.84-.12,1,.06c.4.38.33,1.24.69,1.68"></path> <path class="cls-2" d="M137.13,136.77c-5.3-6.33-9.45-11.57-9.52-11.51-.6.5-2.27-.88-2.77-.31-.19.22.74,2.36.57,2.59s-.31.4-.45.6-1.7-1.52-1.85-1.26,1,2.63.82,3-2.1-2.08-2.23-1.79,1.6,3.17,1.5,3.43-.17.48-.24.72-1.29-.31-1.37,0,.9,1.86.83,2.33-2.41.66-2.44,1.17,2.28,1.5,2.32,2.07-3.25,1-3.15,1.5,3.52,1,3.64,1.38-.39.83-.23,1.26.88.62,1,.9-3,3.13-2.94,3.36,3.56-2.14,3.72-1.87-.27.81-.13,1c.31.47,1.17.54,1.54,1"></path> <path class="cls-2" d="M136.53,136.43c5.29,6.33,9.45,11.58,9.52,11.52.6-.5,2.27.88,2.77.31.19-.22-.74-2.37-.57-2.59s.31-.4.45-.61,1.7,1.52,1.85,1.27-1-2.64-.82-3,2.1,2.07,2.23,1.78-1.6-3.16-1.5-3.43.17-.48.24-.72,1.29.31,1.37,0c.11-.47-.9-1.87-.83-2.34s2.41-.66,2.44-1.17-2.28-1.49-2.32-2.07,3.25-1,3.15-1.5-3.53-1-3.64-1.38.39-.83.23-1.26-.88-.61-1-.9,3.05-3.13,2.94-3.35-3.56,2.13-3.72,1.86.27-.8.13-1c-.31-.47-1.17-.54-1.54-1"></path> <path class="cls-2" d="M136.72,136.27c5.3,6.33,9.73,11.34,9.66,11.4-.6.5.47,2.39-.18,2.78-.25.15-2.19-1.15-2.45-1s-.45.23-.67.33,1.19,1.94.92,2-2.42-1.44-2.77-1.34,1.67,2.44,1.36,2.52-2.83-2.14-3.11-2.09-.5.09-.75.12.08,1.32-.25,1.34-1.68-1.21-2.15-1.22-1.07,2.26-1.58,2.19-1.07-2.5-1.63-2.64-1.52,3-2,2.84-.32-3.64-.72-3.83-.89.24-1.28,0-.45-1-.71-1.15-3.62,2.46-3.82,2.31,2.73-3.13,2.49-3.33-.84.12-1-.05c-.41-.39-.33-1.25-.7-1.69"></path> <circle class="cls-1" cx="94" cy="77" r="43"></circle> <path class="cls-2" d="M93.88,76.86C83.53,64.5,74.86,54.71,75,54.59c1.17-1-.92-4.67.35-5.44.49-.29,4.29,2.25,4.79,2s.87-.44,1.32-.65-2.34-3.79-1.81-4,4.74,2.82,5.42,2.61-3.27-4.76-2.67-4.91,5.54,4.17,6.09,4.07,1-.17,1.46-.23-.16-2.58.48-2.62c.93-.06,3.29,2.36,4.21,2.39s2.1-4.42,3.08-4.29,2.1,4.89,3.2,5.17,3-5.92,4-5.56c.8.3.64,7.12,1.41,7.49s1.74-.48,2.51,0c.51.31.88,1.91,1.38,2.25s7.08-4.82,7.47-4.52-5.33,6.12-4.87,6.51,1.64-.23,2,.11c.8.75.64,2.43,1.36,3.3"></path> <path class="cls-2" d="M94.26,76.55C83.9,64.18,75.78,53.93,75.64,54.05c-1.17,1-4.43-1.72-5.41-.61-.38.43,1.46,4.62,1.11,5.06s-.6.79-.88,1.19-3.31-3-3.62-2.48,2,5.15,1.62,5.79-4.11-4-4.36-3.49S67.23,65.7,67,66.22s-.33.93-.48,1.4-2.51-.61-2.66,0c-.22.9,1.75,3.65,1.61,4.57s-4.72,1.29-4.76,2.28,4.45,2.92,4.53,4-6.35,1.89-6.16,2.93c.15.83,6.89,1.87,7.12,2.7s-.77,1.62-.46,2.46c.21.56,1.72,1.2,2,1.76s-6,6.12-5.76,6.56,7-4.17,7.27-3.65-.52,1.57-.25,2c.61.91,2.29,1.06,3,1.92"></path> <path class="cls-2" d="M93.07,75.89c10.36,12.37,18.48,22.62,18.62,22.51,1.17-1,4.44,1.72,5.41.6.38-.43-1.45-4.61-1.11-5.06s.6-.78.88-1.18,3.32,3,3.62,2.47-1.94-5.15-1.62-5.78,4.12,4,4.37,3.48-3.13-6.19-2.94-6.71.33-.92.48-1.39c.19-.62,2.51.6,2.67,0,.22-.9-1.75-3.65-1.62-4.56s4.72-1.3,4.76-2.28-4.44-2.93-4.52-4.06S128.42,72,128.23,71c-.15-.84-6.9-1.88-7.12-2.7s.77-1.63.45-2.47c-.21-.56-1.72-1.2-2-1.75s6-6.13,5.76-6.56-7,4.17-7.27,3.64.52-1.57.25-2c-.6-.92-2.29-1.06-3-1.92"></path> <path class="cls-2" d="M93.45,75.58c10.36,12.36,19,22.16,18.89,22.27-1.17,1,.91,4.67-.35,5.44-.49.29-4.29-2.24-4.79-2s-.88.45-1.32.65,2.33,3.79,1.8,4-4.73-2.81-5.41-2.6,3.26,4.76,2.66,4.9-5.54-4.16-6.09-4.06-1,.16-1.45.22c-.64.09.15,2.58-.49,2.62-.92.06-3.28-2.36-4.21-2.38s-2.1,4.41-3.08,4.28-2.1-4.89-3.2-5.16-3,5.92-4,5.55c-.79-.3-.63-7.12-1.41-7.48s-1.73.47-2.5,0c-.52-.31-.89-1.9-1.38-2.24s-7.08,4.81-7.47,4.51S75,98,74.55,97.62s-1.64.23-2-.1c-.79-.76-.64-2.44-1.36-3.3"></path> <circle class="cls-1" cx="159" cy="178" r="16"></circle> <path class="cls-2" d="M159,178c-3.86-4.6-7.08-8.25-7-8.29.43-.36-.34-1.74.13-2,.18-.11,1.6.83,1.78.73l.49-.24c.2-.09-.87-1.41-.67-1.49s1.76,1.05,2,1-1.22-1.77-1-1.82,2.07,1.55,2.27,1.51l.54-.08c.24,0-.06-1,.18-1s1.22.88,1.57.89.78-1.64,1.15-1.6.78,1.82,1.19,1.93,1.1-2.21,1.47-2.07.24,2.65.52,2.79.65-.18.94,0,.32.71.51.84,2.63-1.8,2.78-1.68-2,2.27-1.81,2.42.61-.09.74,0c.3.28.24.9.51,1.22"></path> <path class="cls-2" d="M159.1,177.83c-3.86-4.6-6.88-8.41-6.93-8.37-.44.36-1.65-.64-2-.23-.14.16.54,1.72.41,1.89l-.33.44c-.12.17-1.23-1.11-1.34-.92s.72,1.91.6,2.15-1.53-1.51-1.63-1.3S149,173.8,149,174a4.56,4.56,0,0,0-.18.52c-.07.23-.94-.23-1,0s.65,1.36.6,1.7-1.76.48-1.78.85,1.66,1.09,1.69,1.51-2.36.7-2.29,1.09,2.56.7,2.65,1-.29.61-.17.92.64.45.73.65-2.23,2.28-2.14,2.44,2.59-1.55,2.7-1.35-.19.58-.09.73c.22.34.85.4,1.12.72"></path> <path class="cls-2" d="M158.66,177.59c3.85,4.6,6.87,8.41,6.92,8.37.44-.36,1.65.64,2,.23.14-.16-.54-1.72-.42-1.89a4.59,4.59,0,0,0,.33-.44c.12-.17,1.23,1.11,1.35.92s-.73-1.91-.6-2.15,1.53,1.51,1.62,1.3-1.17-2.3-1.09-2.5.12-.34.17-.52.94.23,1,0-.65-1.36-.6-1.7,1.75-.48,1.77-.85-1.66-1.09-1.69-1.51,2.37-.7,2.3-1.09-2.57-.7-2.65-1,.28-.61.17-.92-.64-.45-.74-.65,2.23-2.28,2.14-2.44-2.58,1.55-2.7,1.35.19-.58.09-.73c-.22-.34-.85-.4-1.12-.72"></path> <path class="cls-2" d="M158.79,177.47c3.86,4.6,7.08,8.25,7,8.29-.43.36.34,1.74-.13,2-.18.11-1.59-.83-1.78-.73l-.49.24c-.2.09.87,1.41.67,1.49s-1.76-1.05-2-1,1.21,1.77,1,1.82-2.06-1.55-2.27-1.51l-.54.08c-.24,0,.06,1-.18,1s-1.22-.88-1.57-.89-.78,1.64-1.14,1.6-.79-1.82-1.19-1.93-1.11,2.21-1.48,2.07-.23-2.65-.52-2.79-.65.18-.93,0-.33-.71-.52-.83-2.63,1.79-2.78,1.68,2-2.28,1.81-2.43-.61.09-.74,0c-.29-.28-.24-.9-.5-1.22"></path> <circle class="cls-2" cx="278" cy="151" r="6"></circle> <circle class="cls-2" cx="102" cy="165" r="6"></circle> <circle class="cls-2" cx="206" cy="348" r="6"></circle> </svg> 