<?xml version="1.0" encoding="UTF-8"?> <svg xmlns="http://www.w3.org/2000/svg" id="Слой_1" data-name="Слой 1" viewBox="0 0 400 400"> <defs> <style>.cls-1{fill:#ce159c;}.cls-2{fill:#fff;}.cls-3{fill:#1d3e67;}</style> </defs> <circle class="cls-1" cx="200.5" cy="204.5" r="191.5"></circle> <path class="cls-2" d="M215.77-100,169.32,106.65S130.73,108.51,134,137s16.38,39.18,42,45c22,5,24.41,1.85,46-5,41-13,5-52.73,5-52.73L267-50.34Z"></path> <path class="cls-2" d="M216.12,466.94l.81-211.81s44.57-19.08,31.17-44.61c-17-32.34-38.58,3.6-62.37-7.56s-15-23.18-36.12-15c-39.29,15.24,7.21,62.39,7.21,62.39L155.36,429.5Z"></path> <path class="cls-3" d="M172,182c-15-7-40,2-33,6s24-6,39.3,10.84C189,210.63,203,206,196,200S172,182,172,182Z"></path> <circle class="cls-3" cx="112" cy="186" r="6"></circle> <circle class="cls-3" cx="126" cy="200" r="4"></circle> <circle class="cls-3" cx="207" cy="195" r="3"></circle> </svg> 