<?xml version="1.0" encoding="UTF-8"?> <svg xmlns="http://www.w3.org/2000/svg" id="Слой_1" data-name="Слой 1" viewBox="0 0 400 400"> <defs> <style>.cls-1{fill:#ce159c;}.cls-2{fill:#fff;}</style> </defs> <circle class="cls-1" cx="200.5" cy="201.5" r="191.5"></circle> <path class="cls-2" d="M231.71,151.89,274.35,74.2a8,8,0,0,0-3.18-10.9L253.9,53.82A8,8,0,0,0,243,57l-42.64,77.7-.1.2s-1.62,3.39-7.55,3.39a29.3,29.3,0,0,1-11-2.66,15.75,15.75,0,0,0-6.1-1.33c-8.26,0-12.07,7.59-12.58,8.67a27.73,27.73,0,0,0,11,37.57,14.14,14.14,0,0,0,6.95,1.62,41.59,41.59,0,0,0,5.18-.43,37.54,37.54,0,0,1,4.42-.38,8.11,8.11,0,0,1,4,.88c2.31,1.26,3.54,3.86,5,6.87,1.64,3.46,3.5,7.38,7.52,9.59a27.72,27.72,0,0,0,37.59-10.88c2.71-4.11,5.33-13.38-3.85-19.72-13.41-9.27-9.47-15.74-9.32-16Zm-5.37,5.16c.92,5.14,4.9,10.18,11.83,15,7.51,5.18,3.06,12.4,2.54,13.2a1.74,1.74,0,0,0-.11.18,22.93,22.93,0,0,1-31.14,9.08c-2.67-1.46-4.05-4.37-5.5-7.44-1.63-3.44-3.32-7-7-9a12.81,12.81,0,0,0-6.34-1.46,41.61,41.61,0,0,0-5,.41,37.43,37.43,0,0,1-4.58.39,9.26,9.26,0,0,1-4.64-1,22.79,22.79,0,0,1-11-13.69,24.34,24.34,0,0,1-.6-2.63l6.14,3.27a2.26,2.26,0,0,0,1.12.29,2.4,2.4,0,0,0,1.13-4.51l-8.45-4.5a.7.7,0,0,0-.2-.08,22.66,22.66,0,0,1,1.16-5.62l24.36,13.29a2.33,2.33,0,0,0,1.14.29,2.39,2.39,0,0,0,1.15-4.49l-24.69-13.47c.78-1.42,3.36-5.4,8-5.4a11,11,0,0,1,4.24.95,33.94,33.94,0,0,0,12.83,3c8.44,0,11.38-5.14,11.87-6.13l4.25-7.75,12.82,6.4a2.28,2.28,0,0,0,1.07.26,2.4,2.4,0,0,0,1.07-4.54L211.15,125l36-65.69A3.24,3.24,0,0,1,250,57.62a3.18,3.18,0,0,1,1.56.4l17.27,9.48a3.23,3.23,0,0,1,1.28,4.39l-2,3.64L254.2,69a2.39,2.39,0,1,0-2.14,4.28l13.78,6.52L227.55,149.5A10.8,10.8,0,0,0,226.34,157.05Z"></path> <path class="cls-2" d="M211.61,206.09c-4.6,0-8.11,2.55-11.21,4.79-2.69,2-5,3.64-7.65,3.64s-5-1.69-7.66-3.64c-3.1-2.24-6.61-4.79-11.2-4.79a27.76,27.76,0,0,0-27.72,27.63c-.4,4.9,1.77,14.29,12.86,15.43,16.21,1.67,15.87,9.24,15.85,9.51a2.35,2.35,0,0,0,0,.26v62.89a8,8,0,0,0,8,8H202.6a8,8,0,0,0,8-8V258.92a1.85,1.85,0,0,0,0-.23c0-.07-.3-7.86,15.88-9.54,11.09-1.15,13.25-10.53,12.84-15.44A27.75,27.75,0,0,0,211.61,206.09ZM226,244.39c-20.07,2.08-20.24,13.07-20.16,14.6v62.82a3.25,3.25,0,0,1-3.24,3.24H182.89a3.24,3.24,0,0,1-3.23-3.24V308.26H194a2.4,2.4,0,0,0,0-4.79H179.66v-8.16h4.79a2.4,2.4,0,0,0,0-4.79h-4.79V259a10.74,10.74,0,0,0-2.57-7.2c-3.28-4.07-9.19-6.57-17.57-7.43-9.08-.93-8.65-9.4-8.58-10.35a1.62,1.62,0,0,0,0-.22,23,23,0,0,1,22.94-22.94c3,0,5.64,1.88,8.39,3.88,3.09,2.23,6.28,4.54,10.47,4.54s7.37-2.31,10.46-4.54c2.75-2,5.35-3.88,8.4-3.88A23,23,0,0,1,233.81,228H208.66a2.4,2.4,0,1,0,0,4.79h25.86c0,.33,0,.66,0,1a1.55,1.55,0,0,0,0,.22C234.59,234.42,235.31,243.42,226,244.39Z"></path> <path class="cls-2" d="M175.07,203.26c5.89,3.11,10.62,4.62,14.48,4.62,5.47,0,9.09-3.16,10.2-8.91a12.17,12.17,0,0,0-2.43-10.08c-1.8-2.17-5.29-4.77-11.74-4.77a32.55,32.55,0,0,0-8.93,1.4l-.17.06a18.46,18.46,0,0,1-5.73.86c-5.69,0-13.57-2.47-18.84-14.23-1.28-2.88-3-4.34-5-4.34-1.27,0-5.17,0-8.6,12.91-1.76,6.62-5.23,26.4,1.65,30.33a2.41,2.41,0,0,0,2.87-.38c.1-.1,10.26-10,22.3-10A21.17,21.17,0,0,1,175.07,203.26Zm-33.64,2.28c-.52-1.43-1-4.09-.82-8.62.41-11,4-22.21,6.17-24.1a6.14,6.14,0,0,1,.77,1.34c6.64,14.85,17.39,17.07,23.2,17.07a23.15,23.15,0,0,0,7.3-1.13,27.8,27.8,0,0,1,7.54-1.19c3.62,0,6.4,1.05,8,3a7.36,7.36,0,0,1,1.42,6.13c-.68,3.52-2.32,5-5.5,5-3,0-7.14-1.36-12.24-4.06A26,26,0,0,0,165.08,196C154.36,196,145.31,202.33,141.43,205.54Z"></path> <path class="cls-2" d="M242,83.39l10.69,5.07a2.48,2.48,0,0,0,1,.23,2.4,2.4,0,0,0,1-4.56L244,79.06a2.39,2.39,0,0,0-2,4.33Z"></path> </svg> 