<?xml version="1.0" encoding="UTF-8"?> <svg xmlns="http://www.w3.org/2000/svg" id="Слой_1" data-name="Слой 1" viewBox="0 0 400 400"> <defs> <style>.cls-1{fill:#ce159c;}.cls-2{fill:#fff;}</style> </defs> <circle class="cls-1" cx="200.5" cy="201.5" r="191.5"></circle> <path class="cls-2" d="M294.24,65.06a2.42,2.42,0,0,0-1.95-1H215.54a2.47,2.47,0,0,0-1,.23c-43.85,21-65.38,83.05-65.85,96.6-.48,13.71,5,21.78,9.35,28.26.76,1.13,1.48,2.19,2.11,3.21a29,29,0,0,1,.17,3.71,98.39,98.39,0,0,0,8.28,39.66c11.47,26.85,17.07,51.7,14.27,63.31-2,8.34-18.2,15.43-44.42,19.45-9.14,1.4-12.9,6.37-12.57,10.67.31,4,3.87,6.81,8.67,6.81,7.94,0,16.6,3.5,16.68,3.53a2.29,2.29,0,0,0,.62.17,53.83,53.83,0,0,0,6.28.38c7.7,0,13.74-1.83,19.07-3.46,4.53-1.38,8.82-2.68,13.54-2.68a28.23,28.23,0,0,1,8.65,1.41,37.36,37.36,0,0,0,11.37,1.59,51,51,0,0,0,9.58-.88l.24-.06c5-1.61,8.39-4.34,10.14-8.13,3.55-7.65-.52-17.48-3.5-24.66-.71-1.71-1.33-3.18-1.74-4.4-8.75-25.72-7.17-40.26-4.79-62.28.54-5,1.09-10.12,1.58-15.89,2.72-32-6.65-41.63-16.48-48.81-.38-.28-.38-.45-.38-.6,0-1.87,3.6-5.89,8.38-9.37,33.29-24.23,53.46-48.59,64.51-64.76,12-17.62,16.13-29.38,16.29-29.87A2.39,2.39,0,0,0,294.24,65.06ZM210.93,158c-3.11,2.26-10.33,8.07-10.34,13.2a5.36,5.36,0,0,0,2.34,4.45c4.57,3.34,8.86,7.13,11.67,13.83H197.09a2.38,2.38,0,1,0,0,4.76H216.2a47.65,47.65,0,0,1,1.06,5.32h-4.15a2.38,2.38,0,1,0,0,4.76h4.64a103.51,103.51,0,0,1-.28,15.9c-.48,5.71-1,10.83-1.57,15.78-2.08,19.21-3.65,33.72,2.19,55.12H207.21a2.38,2.38,0,1,0,0,4.76h12.27c.44,1.45.92,2.92,1.43,4.43s1.14,3,1.85,4.7c2.64,6.37,6.26,15.08,3.59,20.84-1.18,2.54-3.52,4.36-7.15,5.56a49.15,49.15,0,0,1-8.48.75,32.88,32.88,0,0,1-9.91-1.36,32.76,32.76,0,0,0-10.11-1.64c-5.43,0-10,1.4-14.94,2.89-5.25,1.6-10.69,3.25-17.67,3.26a47.19,47.19,0,0,1-5.39-.32c-1.74-.68-10.09-3.77-18.19-3.77-2.23,0-3.8-1-3.91-2.41-.13-1.71,2-4.61,8.54-5.61,20.27-3.1,45.1-9.62,48.33-23,3.67-15.22-5.09-44.22-14.51-66.28a92.75,92.75,0,0,1-7.9-37.87c0-3.21-.07-4.82-.79-6s-1.49-2.29-2.31-3.51c-4.2-6.22-9-13.27-8.53-25.43.18-5.21,5-23.2,15.92-43.09a159.24,159.24,0,0,1,12-18.78h23.83a2.38,2.38,0,1,0,0-4.76h-20.1a115.78,115.78,0,0,1,9.56-10.36h60a2.38,2.38,0,1,0,0-4.76H200a81.71,81.71,0,0,1,16.09-10.49h56.67a172.08,172.08,0,0,1-15.7,27C241.31,118.43,219.85,139.91,195,158a2.37,2.37,0,0,0-.52,3.33,2.4,2.4,0,0,0,3.34.51c56-40.74,76.15-83.43,80.15-93h10.79C283.92,80,264.13,119.29,210.93,158Z"></path> <path class="cls-2" d="M183.47,233.88a98,98,0,0,1-6.69-22.6,2.39,2.39,0,1,0-4.71.77,102.72,102.72,0,0,0,7,23.69,251,251,0,0,1,9.68,26.67,2.39,2.39,0,0,0,2.29,1.71,2.33,2.33,0,0,0,.68-.1,2.37,2.37,0,0,0,1.61-2.95A252.6,252.6,0,0,0,183.47,233.88Z"></path> </svg> 