<?xml version="1.0" encoding="UTF-8"?> <svg xmlns="http://www.w3.org/2000/svg" id="Слой_1" data-name="Слой 1" viewBox="0 0 863 1110"> <defs> <style>.cls-1{fill:#d3d8e3;}.cls-2{fill:#bec3cf;}.cls-3{fill:#1d3e67;}.cls-4{fill:#142841;}.cls-5{fill:#f2f4f9;}.cls-6{fill:#ce159c;}.cls-7{fill:#b12283;}.cls-8{fill:none;}</style> </defs> <path class="cls-1" d="M710.55,1021.38H778.9V85.73H710.55Z"></path> <path class="cls-1" d="M81.27,1021.38h68.35V85.73H81.27Z"></path> <path class="cls-2" d="M149.62,427.73a130.34,130.34,0,0,0-68.35,0V679.38a130.34,130.34,0,0,0,68.35,0Z"></path> <path class="cls-2" d="M778.9,427.73a130.38,130.38,0,0,0-68.36,0V679.38a130.38,130.38,0,0,0,68.36,0Z"></path> <path class="cls-3" d="M115.45,468.11a85.45,85.45,0,1,0,85.45,85.44A85.45,85.45,0,0,0,115.45,468.11Z"></path> <path class="cls-3" d="M744.73,468.11a85.45,85.45,0,1,0,85.44,85.44A85.44,85.44,0,0,0,744.73,468.11Z"></path> <path class="cls-3" d="M55.8,1089.55H804.36a39.59,39.59,0,1,0,0-79.17H55.8a39.59,39.59,0,1,0,0,79.17Z"></path> <path class="cls-4" d="M55.8,1089.55H208.57a39.59,39.59,0,0,1,0-79.17H55.8a39.59,39.59,0,1,0,0,79.17Z"></path> <path class="cls-3" d="M55.8,96.73H804.36a39.59,39.59,0,1,0,0-79.18H55.8a39.59,39.59,0,0,0,0,79.18Z"></path> <path class="cls-5" d="M223.56,1010.38h413V774.23A147.43,147.43,0,0,0,594,670.53l-75.28-76.09a58.14,58.14,0,0,1,0-81.76L594,436.59a147.46,147.46,0,0,0,42.63-103.7V96.73h-413V333A147.48,147.48,0,0,0,266,436.56l75.13,76.18a58.11,58.11,0,0,1,0,81.63L266,670.56A147.45,147.45,0,0,0,223.56,774.1Z"></path> <path class="cls-5" d="M609.05,418.65l-32.16,32.51a58.19,58.19,0,0,0-9,11.81L594,436.59A146.64,146.64,0,0,0,609.05,418.65Z"></path> <path class="cls-1" d="M636.6,1010.38V948.86H554.41c-159.5,0-280.81-144.77-251.15-301.49,2-10.52,4.11-17.9,6.36-21L266,670.55a147.47,147.47,0,0,0-42.47,103.54v236.29Z"></path> <path class="cls-1" d="M341.16,512.74A58.14,58.14,0,0,1,349.91,583l49.45-50.15a58.13,58.13,0,0,0,0-81.63L324.23,375A147.47,147.47,0,0,1,281.76,271.5V96.73h-58.2V333A147.48,147.48,0,0,0,266,436.56Z"></path> <path class="cls-6" d="M565.94,838.5c-11.16,9.56-28.85,22.12-52,27.54-44.6,10.42-72.28-14.26-129.44-25.33-20.93-4.05-51.47-7.38-89.85-2.21-6.3-33.19-2.38-55.9,1.78-69.82,13.5-45.17,46.88-55.79,92.83-111.73a441.11,441.11,0,0,0,41.06-59.53,734.78,734.78,0,0,0,50,61c44.34,48.51,68,60.91,80.92,97.75C567,772.63,572.38,799,565.94,838.5Z"></path> <path class="cls-7" d="M342.21,836a253.56,253.56,0,0,1-37.54-87.21,100.41,100.41,0,0,0-8.28,19.87c-4.16,13.93-8.08,36.64-1.78,69.83A286.89,286.89,0,0,1,342.21,836Z"></path> <path class="cls-6" d="M579.22,96.73c6.93,29.58,2.62,49.82-2,62.23-14.86,40.25-51.61,49.72-102.19,99.57a402.09,402.09,0,0,0-33.75,37.76,16.31,16.31,0,0,1-24.61,1.18c-10.86-11.33-24.91-25.22-41.87-40.25C326,214,300,202.94,285.75,170.1c-6.35-14.66-12.32-38.19-5.24-73.37Z"></path> <path class="cls-4" d="M55.8,96.73H208.57a39.59,39.59,0,0,1,0-79.18H55.8a39.59,39.59,0,0,0,0,79.18Z"></path> <rect class="cls-8" x="-105.92" y="17.55" width="1072" height="1072"></rect> </svg> 